<?xml version="1.0" encoding="UTF-8" standalone="no"?>
<!-- Created with Inkscape (http://www.inkscape.org/) -->

<svg
   xmlns:dc="http://purl.org/dc/elements/1.1/"
   xmlns:cc="http://creativecommons.org/ns#"
   xmlns:rdf="http://www.w3.org/1999/02/22-rdf-syntax-ns#"
   xmlns:svg="http://www.w3.org/2000/svg"
   xmlns="http://www.w3.org/2000/svg"
   version="1.1"
   width="211.09"
   height="198.36"
   id="svg2"
   xml:space="preserve"><metadata
     id="metadata8"><rdf:RDF><cc:Work
         rdf:about=""><dc:format>image/svg+xml</dc:format><dc:type
           rdf:resource="http://purl.org/dc/dcmitype/StillImage" /><dc:title></dc:title></cc:Work></rdf:RDF></metadata><defs
     id="defs6" /><g
     transform="matrix(1.25,0,0,-1.25,0,198.36004)"
     id="g10"><path
       d="m 5.3149741,8.8622129 0,12.1850471 c 0,0.797125 -0.05798,1.359714 -0.1688707,1.688616 -0.1167701,0.332294 -0.3126034,0.613695 -0.6029069,0.853532 -0.1200137,0.09373 -0.2540155,0.168374 -0.39714,0.224781 -0.1469763,0.06129 -0.3298351,0.112391 -0.5572936,0.159892 -0.2276612,0.03732 -0.3746374,0.08419 -0.445997,0.144835 -0.067102,0.0615 -0.102782,0.145472 -0.102782,0.253833 0.00811,0.163921 0.044194,0.276523 0.1114993,0.328053 0.067102,0.05662 0.1964414,0.08907 0.3969373,0.09861 0.03568,0 0.1563017,-0.0106 0.366123,-0.0282 1.440773,-0.09861 2.9624337,-0.150349 4.5639684,-0.150349 1.9451551,0 3.8811871,0.07528 5.8172201,0.220752 0.356797,0.0282 0.571282,0.04199 0.642438,0.04199 0.218944,0 0.356798,-0.04199 0.424103,-0.117268 0.0667,-0.07995 0.09832,-0.229658 0.09832,-0.450198 l 0,-0.177917 c 0,-0.0106 -0.0041,-0.0282 -0.01419,-0.05641 -0.0081,-0.02354 -0.01419,-0.0704 -0.01419,-0.135929 l -0.182858,-2.307612 c -0.01825,-0.230295 -0.04886,-0.384673 -0.089,-0.459953 -0.0448,-0.07931 -0.120622,-0.121297 -0.223607,-0.131052 -0.111499,0 -0.200496,0.0422 -0.263138,0.131052 -0.05798,0.08482 -0.0892,0.210997 -0.0892,0.375766 0,0.03732 0.0041,0.09373 0.01419,0.163497 0.01014,0.07507 0.01419,0.12681 0.01419,0.155014 0,0.684734 -0.232121,1.168014 -0.700621,1.440296 -0.464242,0.276523 -1.320556,0.412452 -2.569753,0.412452 l -1.8693358,0 c -0.8788168,0 -1.4454357,-0.07995 -1.6907341,-0.234536 -0.249961,-0.155014 -0.3746375,-0.450198 -0.3746375,-0.890854 l 0,-5.797022 c 0,-0.506817 0.05352,-0.811544 0.1648162,-0.914816 0.1070393,-0.107726 0.3570003,-0.159468 0.7494777,-0.159468 l 2.1997785,0 c 0.815972,0 1.414216,0.0704 1.788854,0.206332 0.374637,0.136353 0.668995,0.370253 0.878614,0.698942 0.102376,0.159468 0.205158,0.412453 0.303481,0.764681 0.102376,0.351591 0.236175,0.530144 0.4016,0.530144 0.09366,0 0.169681,-0.05704 0.227053,-0.164557 0.05859,-0.112603 0.08514,-0.262739 0.08514,-0.455076 0,-0.04687 -0.01824,-0.351804 -0.05352,-0.923935 -0.03163,-0.572344 -0.04886,-1.130056 -0.04886,-1.669318 0,-0.516361 0.03568,-1.060289 0.102376,-1.636874 0.01825,-0.155014 0.02696,-0.252985 0.02696,-0.300486 0,-0.164132 -0.03568,-0.304726 -0.112107,-0.417117 -0.07075,-0.117268 -0.160357,-0.173675 -0.254016,-0.173675 -0.218336,0 -0.356798,0.225417 -0.41944,0.670738 -0.04419,0.314482 -0.089,0.548806 -0.142516,0.703396 -0.147179,0.394215 -0.410317,0.670738 -0.785563,0.829993 -0.374638,0.159892 -0.972274,0.239201 -1.788854,0.239201 l -2.5251535,0 c -0.329835,0 -0.548779,-0.05577 -0.6464929,-0.16392 -0.102782,-0.112603 -0.151639,-0.361346 -0.151639,-0.755138 l 0,-5.7406135 c 0,-0.7031834 0.147179,-1.1769203 0.4372798,-1.4161214 0.2941553,-0.239201 0.8786141,-0.3564689 1.7572282,-0.3564689 1.0799214,0 2.1148364,0.121509 3.1049504,0.3653754 0.990721,0.2394131 1.793516,0.5674664 2.413654,0.9805548 0.348081,0.2392011 0.674064,0.562589 0.972882,0.9708001 0.298818,0.407999 0.503977,0.6094538 0.606759,0.6094538 0.07116,0 0.129339,-0.041987 0.169478,-0.1310516 0.0448,-0.084187 0.0667,-0.2014548 0.0667,-0.3515917 0,-0.2627395 -0.08454,-0.61009 -0.249353,-1.0412033 C 16.521649,7.1695683 16.321153,6.7944382 16.089032,6.4704141 15.678715,5.940906 15.254612,5.5651397 14.826455,5.3452359 14.393838,5.1244839 13.845059,5.0169706 13.184781,5.0169706 c -0.174142,0 -0.785158,0.027567 -1.837913,0.07931 -1.048701,0.056619 -2.0031349,0.084187 -2.8685718,0.084187 -1.5441633,0 -3.0025735,-0.055983 -4.3766497,-0.1634965 -0.2011041,-0.019085 -0.3257805,-0.028204 -0.3699748,-0.028204 -0.058588,0 -0.1208246,0.032445 -0.1879269,0.102848 -0.066697,0.070827 -0.097714,0.1458957 -0.097714,0.2254173 0,0.1170559 0.031017,0.2156627 0.093051,0.2949723 0.058588,0.079946 0.1925896,0.1696462 0.4016,0.2676168 0.018245,0.010603 0.03568,0.019085 0.05352,0.028204 0.3219287,0.1454716 0.5581044,0.3047269 0.7050807,0.4832795 0.2276612,0.2434422 0.3880174,0.5301442 0.4776222,0.8577734 0.093659,0.3240241 0.1378536,0.8632869 0.1378536,1.613335 z m 14.4819279,-0.646776 0,5.9329501 c 0,0.506182 -0.09366,0.867528 -0.28564,1.088068 -0.191982,0.219904 -0.508437,0.328266 -0.94592,0.328266 -0.258475,0 -0.441334,0.0282 -0.539453,0.08461 -0.102985,0.05111 -0.151842,0.135929 -0.151842,0.243442 0,0.12681 0.03568,0.220752 0.111499,0.2814 0.07582,0.06128 0.227662,0.09861 0.464445,0.117268 0.02635,0 0.05332,0.0042 0.07987,0.01484 0.174142,0.03775 0.298818,0.07083 0.379301,0.09437 0.530939,0.196577 1.057215,0.42666 1.588154,0.698518 0.52648,0.267405 0.820635,0.403334 0.883277,0.403334 0.111499,0 0.191982,-0.0422 0.231716,-0.122145 0.0448,-0.08397 0.0671,-0.257863 0.0671,-0.52039 l 0,-1.665077 c 0.705081,0.680281 1.383199,1.182222 2.034355,1.510487 0.647101,0.33293 1.280822,0.497063 1.900961,0.497063 0.62399,0 1.217774,-0.145471 1.775068,-0.440444 0.558104,-0.290943 1.017278,-0.699154 1.374684,-1.224633 0.311995,-0.445321 0.534994,-0.984584 0.664333,-1.613335 0.129136,-0.628751 0.196441,-1.627119 0.196441,-3.001889 l 0,-2.7338475 c 0,-0.7693453 0.05352,-1.289947 0.165019,-1.5526865 0.107445,-0.2669806 0.307941,-0.4921859 0.593582,-0.6749796 0.106836,-0.065526 0.222998,-0.1123906 0.352135,-0.1454716 0.134001,-0.032445 0.280978,-0.046865 0.446605,-0.046865 0.209213,0 0.356189,-0.033081 0.436671,-0.093941 0.08515,-0.065314 0.125285,-0.1783406 0.125285,-0.3329306 0,-0.098607 -0.03568,-0.1779164 -0.111499,-0.2392011 -0.07176,-0.060649 -0.169479,-0.089064 -0.294764,-0.089064 -0.05352,0 -0.34362,0.023538 -0.873951,0.070403 -0.531142,0.041987 -1.035524,0.065526 -1.504024,0.065526 -0.687241,0 -1.342856,-0.041987 -1.958332,-0.1219331 -0.0892,-0.00848 -0.143125,-0.014844 -0.160356,-0.014844 -0.07582,0 -0.147787,0.028416 -0.205159,0.089064 -0.06264,0.061285 -0.09427,0.1310516 -0.09427,0.2109974 0,0.1503489 0.116162,0.3047269 0.352945,0.4784021 0.236176,0.16901 0.396938,0.3096043 0.481474,0.4317495 0.138462,0.1825817 0.236784,0.407999 0.294764,0.6796449 0.05757,0.2676169 0.08454,0.7082728 0.08454,1.3134854 l 0,3.1564787 c 0,1.707064 -0.227662,2.898616 -0.686836,3.573596 -0.455119,0.679857 -1.222842,1.017665 -2.293438,1.017665 -0.976733,0 -1.735334,-0.252985 -2.279653,-0.754925 -0.544116,-0.506818 -0.81658,-1.210214 -0.81658,-2.115276 l 0,-4.9057423 c 0,-0.7549255 0.06264,-1.271286 0.182859,-1.5526865 0.120622,-0.2860659 0.352743,-0.5206017 0.691903,-0.7031833 0.09812,-0.055983 0.209619,-0.093942 0.343013,-0.1221453 0.129947,-0.027568 0.276923,-0.041987 0.441942,-0.041987 0.272261,-0.019085 0.446403,-0.061285 0.526277,-0.1221452 0.07602,-0.065526 0.116162,-0.1641327 0.116162,-0.304727 0,-0.098607 -0.04014,-0.1779164 -0.116162,-0.239201 -0.07987,-0.060649 -0.182656,-0.089064 -0.316658,-0.089064 -0.05798,0 -0.369975,0.023538 -0.932539,0.070403 -0.561957,0.041987 -1.093098,0.065526 -1.592412,0.065526 -0.705081,0 -1.387254,-0.041987 -2.052195,-0.1219332 -0.102782,-0.00848 -0.169479,-0.014844 -0.196441,-0.014844 -0.08454,0 -0.165019,0.028416 -0.236176,0.089064 -0.06731,0.061285 -0.102782,0.1310517 -0.102782,0.2109974 0,0.09373 0.02696,0.1736753 0.08028,0.2440785 0.04886,0.065526 0.147179,0.1357169 0.28564,0.2109974 0.02656,0.019085 0.07136,0.046865 0.129339,0.084187 0.191982,0.1454716 0.329836,0.2674047 0.405655,0.3708889 0.174142,0.22054 0.294358,0.4597411 0.36146,0.7267217 0.06731,0.2674048 0.09832,0.6845223 0.09832,1.2664086 z m 14.561803,0 0,6.0033531 c 0,0.450199 -0.102377,0.787371 -0.311996,1.008123 -0.209821,0.225205 -0.530939,0.337808 -0.968421,0.337808 -0.254421,0 -0.428563,0.02333 -0.521614,0.07507 -0.09832,0.05174 -0.147787,0.135929 -0.147787,0.252985 0,0.11239 0.04075,0.197213 0.111499,0.253197 0.07643,0.06128 0.254624,0.117692 0.530939,0.173675 0.05352,0.01909 0.120622,0.03775 0.209821,0.05641 0.41944,0.107726 0.758601,0.224994 1.017685,0.342049 0.26253,0.117268 0.584458,0.286278 0.96761,0.497276 0.383963,0.211421 0.624802,0.314269 0.718461,0.314269 0.106836,0 0.178196,-0.03732 0.218944,-0.117268 0.03507,-0.07507 0.05737,-0.262527 0.05737,-0.55347 l 0,-1.85699 c 0.705081,0.890855 1.244737,1.476982 1.61532,1.767925 0.370178,0.286066 0.731638,0.431538 1.088436,0.431538 0.410317,0 0.79874,-0.150137 1.164255,-0.455076 0.366123,-0.29985 0.548779,-0.59567 0.548779,-0.876859 0,-0.220115 -0.1115,-0.468859 -0.338958,-0.741141 -0.227661,-0.276523 -0.41944,-0.412452 -0.575336,-0.412452 -0.08028,0 -0.299224,0.11239 -0.664738,0.342049 -0.366123,0.230294 -0.727584,0.342685 -1.075259,0.342685 -0.459782,0 -0.874559,-0.220752 -1.240682,-0.666073 -0.365515,-0.445534 -0.548171,-0.938356 -0.548171,-1.477618 l 0,-4.6427917 c 0,-0.9377191 0.0667,-1.5666822 0.196441,-1.8996128 0.129339,-0.3282653 0.374232,-0.5907928 0.731638,-0.7831291 0.102174,-0.055983 0.218336,-0.093942 0.343012,-0.1221452 0.12934,-0.027567 0.272464,-0.041988 0.441943,-0.041988 0.267801,-0.019085 0.441942,-0.061285 0.521816,-0.1221452 0.07582,-0.065526 0.11596,-0.1641327 0.11596,-0.3047269 0,-0.088852 -0.04419,-0.1687979 -0.129137,-0.2343238 -0.0892,-0.061497 -0.196036,-0.093941 -0.329835,-0.093941 -0.05879,0 -0.375448,0.023538 -0.937404,0.070403 -0.566619,0.041988 -1.102221,0.065526 -1.596872,0.065526 -0.722921,0 -1.418879,-0.041988 -2.092335,-0.1219332 -0.102984,-0.00848 -0.169478,-0.014844 -0.196644,-0.014844 -0.08433,0 -0.160356,0.028416 -0.218944,0.089064 -0.06203,0.061285 -0.09305,0.1310516 -0.09305,0.2109974 0,0.075068 0.0225,0.1405942 0.0667,0.2012427 0.04014,0.061497 0.143124,0.1454716 0.298818,0.2538331 0.156302,0.09373 0.272464,0.1687979 0.348283,0.2343238 0.07582,0.065526 0.142516,0.1359289 0.200496,0.220752 0.169479,0.22054 0.285641,0.4826433 0.36146,0.7880064 0.07582,0.3096043 0.1115,0.7080607 0.1115,1.2051239 z m 8.887098,13.2586951 c 0,0.266981 0.151639,0.586128 0.450457,0.961258 0.298818,0.375554 0.540265,0.563225 0.722921,0.563225 0.169478,0 0.401194,-0.18343 0.70062,-0.544776 0.298818,-0.360498 0.450457,-0.661196 0.450457,-0.899761 0,-0.225417 -0.143124,-0.525903 -0.43282,-0.896156 -0.285438,-0.370464 -0.544116,-0.557923 -0.767114,-0.557923 -0.227459,0 -0.47296,0.159255 -0.732044,0.473736 -0.263138,0.31427 -0.392477,0.614332 -0.392477,0.900397 z m 0.129339,-13.2633604 0,5.0745404 c 0,0.952139 -0.08048,1.566471 -0.240838,1.838753 -0.160965,0.276523 -0.463837,0.41224 -0.909631,0.41224 -0.254624,0 -0.441943,0.02842 -0.562768,0.08482 -0.120621,0.05174 -0.182656,0.135929 -0.182656,0.243442 0,0.18343 0.213876,0.337808 0.641831,0.455076 l 0.0225,0 c 0.201104,0.03775 0.4016,0.08885 0.598244,0.150349 0.195834,0.06553 0.39714,0.149501 0.606759,0.248107 0.254016,0.10815 0.570673,0.272282 0.954636,0.488157 0.38376,0.215239 0.637776,0.323388 0.758398,0.323388 0.111499,0 0.191981,-0.0282 0.236176,-0.08482 0.0448,-0.05111 0.06264,-0.177916 0.06264,-0.370253 0,-0.03732 -0.0041,-0.177916 -0.01014,-0.42666 -0.0442,-1.374134 -0.0667,-2.762263 -0.0667,-4.174143 l 0,-4.2865348 c 0,-0.7362643 0.06264,-1.2473234 0.187319,-1.5340254 0.129339,-0.290307 0.366123,-0.5295081 0.713798,-0.7218444 0.102782,-0.055983 0.218943,-0.093942 0.348283,-0.1221452 0.124676,-0.027567 0.272261,-0.041988 0.437279,-0.041988 0.267193,-0.019085 0.441335,-0.061285 0.521817,-0.1221452 0.07582,-0.065526 0.115959,-0.1641327 0.115959,-0.3047269 0,-0.088852 -0.0448,-0.1687979 -0.129339,-0.2343238 -0.08961,-0.061497 -0.196441,-0.093941 -0.330241,-0.093941 -0.05818,0 -0.37484,0.023538 -0.936796,0.070403 -0.566619,0.041988 -1.102221,0.065526 -1.596872,0.065526 -0.722921,0 -1.418879,-0.041988 -2.092942,-0.1219332 -0.102377,-0.00848 -0.169074,-0.014844 -0.196036,-0.014844 -0.08494,0 -0.160965,0.028416 -0.218944,0.089064 -0.06203,0.061285 -0.09366,0.1310516 -0.09366,0.2109974 0,0.093729 0.02696,0.1736752 0.08048,0.2440784 0.04886,0.065526 0.147179,0.1357169 0.28564,0.2109974 0.02636,0.019085 0.07177,0.046865 0.12934,0.084187 0.191778,0.1454716 0.334903,0.2674048 0.419439,0.3708889 0.164817,0.22054 0.280979,0.4597411 0.347675,0.7267218 0.0671,0.2674047 0.09832,0.6845222 0.09832,1.2617433 z m 14.272107,6.1204094 c 0,-0.182794 -0.01419,-0.309604 -0.0448,-0.380007 -0.03102,-0.07019 -0.07582,-0.103273 -0.138056,-0.103273 -0.0896,0 -0.236581,0.155015 -0.445794,0.459741 -0.205767,0.309605 -0.397748,0.548806 -0.57189,0.722057 -0.374029,0.37513 -0.815972,0.670738 -1.319948,0.886613 -0.509045,0.215663 -1.021739,0.323388 -1.544164,0.323388 -0.976936,0 -1.735333,-0.393791 -2.284112,-1.186675 -0.548374,-0.792247 -0.825298,-1.889858 -0.825298,-3.292195 0,-1.669319 0.406263,-3.0061304 1.21372,-4.01913 0.811918,-1.0134238 1.887176,-1.5193934 3.230032,-1.5193934 0.959097,0 1.847036,0.2674047 2.672333,0.8066674 0.825095,0.5343854 1.253252,0.8017902 1.289337,0.8017902 0.03122,0 0.05818,-0.014844 0.07602,-0.046865 0.01825,-0.033081 0.02636,-0.075069 0.02636,-0.1310517 0,-0.1363531 -0.09366,-0.3289015 -0.285033,-0.577009 C 58.503366,6.8275192 58.240836,6.5641436 57.910393,6.2780777 57.290255,5.738815 56.652479,5.3452359 55.996863,5.0962802 55.335977,4.8481727 54.604339,4.7260274 53.792422,4.7260274 c -1.516593,0 -2.770453,0.5674664 -3.756511,1.7023992 -0.990114,1.1349328 -1.485576,2.5703514 -1.485576,4.3009544 0,1.824332 0.566619,3.357721 1.699857,4.605681 1.133238,1.242446 2.525154,1.86632 4.180614,1.86632 0.539656,0 1.048295,-0.04687 1.525107,-0.135717 0.473567,-0.09437 0.856922,-0.215875 1.15574,-0.370253 0.209821,-0.122781 0.352743,-0.244714 0.424103,-0.366223 0.07582,-0.121934 0.111499,-0.351592 0.111499,-0.679857 l 0,-0.136354 0,-1.181797 z m 4.166828,-6.1157441 0,13.4792351 c 0,0.942597 -0.07987,1.552051 -0.240838,1.833451 -0.160964,0.27716 -0.45512,0.417754 -0.883277,0.417754 l -0.209618,0 c -0.156302,0 -0.281181,0.03244 -0.370178,0.09861 -0.09366,0.06065 -0.138462,0.144835 -0.138462,0.243442 0,0.113027 0.04014,0.197214 0.124677,0.26274 0.08048,0.06553 0.28564,0.12681 0.606758,0.192336 0.03568,0.0106 0.09386,0.02333 0.169682,0.04199 0.393085,0.10815 0.705081,0.215875 0.941256,0.314482 0.303481,0.131052 0.637776,0.309604 0.995182,0.539051 0.356392,0.229658 0.589121,0.342685 0.691498,0.342685 0.111296,0 0.204956,-0.05174 0.276315,-0.150349 0.06731,-0.102636 0.102782,-0.239201 0.102782,-0.412876 0,-0.02757 -0.01014,-0.135929 -0.02696,-0.32763 C 63.75072,23.777079 63.6972,22.384284 63.6972,20.911543 l 0,-5.717711 c 0.704473,0.680281 1.382591,1.182221 2.034355,1.510487 0.646493,0.33293 1.280214,0.497063 1.900352,0.497063 0.624599,0 1.217572,-0.145472 1.775677,-0.440444 0.557293,-0.290943 1.017076,-0.699154 1.373873,-1.224633 0.321321,-0.454864 0.548982,-1.008547 0.687444,-1.6602 0.133191,-0.651653 0.200496,-1.636873 0.200496,-2.955024 l 0,-2.7338478 c 0,-0.7977611 0.05352,-1.3272691 0.156301,-1.580254 0.106837,-0.2584983 0.298818,-0.474373 0.575336,-0.6474121 0.106837,-0.065526 0.222796,-0.1123906 0.348081,-0.1454716 0.124676,-0.032445 0.276518,-0.046865 0.45066,-0.046865 0.218335,0 0.369974,-0.033081 0.459174,-0.093941 0.08494,-0.065314 0.129744,-0.1783405 0.129744,-0.3329306 0,-0.098607 -0.03568,-0.1779164 -0.111499,-0.2392011 -0.07582,-0.060649 -0.170087,-0.089064 -0.294763,-0.089064 -0.05352,0 -0.343621,0.023538 -0.87456,0.070403 -0.530534,0.041988 -1.034916,0.065526 -1.503415,0.065526 -0.686633,0 -1.346911,-0.041988 -1.976172,-0.1219332 -0.07582,-0.00848 -0.124677,-0.014844 -0.142517,-0.014844 -0.07582,0 -0.147787,0.028416 -0.214281,0.089064 -0.0667,0.061285 -0.102985,0.1310516 -0.111499,0.2109974 0,0.1405942 0.120013,0.2958205 0.365514,0.4694957 0.245299,0.1730391 0.410723,0.3185107 0.49526,0.4406559 0.129339,0.1825817 0.222998,0.407999 0.280978,0.679645 0.05798,0.2676168 0.08515,0.7082727 0.08515,1.3134853 l 0,3.1564781 c 0,1.697522 -0.227661,2.884197 -0.687444,3.568719 -0.455119,0.680494 -1.226897,1.022543 -2.306615,1.022543 -0.972274,0 -1.735334,-0.252985 -2.279653,-0.754926 -0.544116,-0.506818 -0.815972,-1.210213 -0.815972,-2.115275 l 0,-4.9057427 c 0,-0.7362644 0.06203,-1.2430823 0.186711,-1.5340254 0.129947,-0.290307 0.366123,-0.5295081 0.714406,-0.7218444 0.09366,-0.055983 0.209619,-0.093942 0.338958,-0.1221453 0.129339,-0.027567 0.280978,-0.041987 0.445997,-0.041987 0.267801,-0.019085 0.441942,-0.061285 0.522424,-0.1221452 0.07582,-0.065526 0.115351,-0.1641327 0.115351,-0.3047269 0,-0.098607 -0.03953,-0.1779165 -0.115351,-0.2392011 -0.08048,-0.060649 -0.183467,-0.089064 -0.317266,-0.089064 -0.05818,0 -0.374637,0.023538 -0.945919,0.070403 -0.570673,0.041987 -1.106275,0.065526 -1.601535,0.065526 -0.704472,0 -1.387253,-0.041987 -2.052194,-0.1219332 -0.102174,-0.00848 -0.169479,-0.014844 -0.196441,-0.014844 -0.08454,0 -0.160357,0.028416 -0.218336,0.089064 -0.06264,0.061285 -0.09366,0.1310517 -0.09366,0.2109975 0,0.09373 0.02696,0.1736752 0.08028,0.2440784 0.04886,0.065526 0.147179,0.1357169 0.285641,0.2109974 0.03568,0.028204 0.0892,0.070191 0.155693,0.1219332 0.165627,0.1310516 0.285641,0.239201 0.352946,0.3331426 0.169479,0.22054 0.285033,0.4597411 0.356798,0.7267217 0.0667,0.2674048 0.102376,0.6845223 0.102376,1.2664086 z M 76.220186,21.474132 c 0,0.266981 0.151639,0.586128 0.450457,0.961258 0.298818,0.375554 0.539656,0.563225 0.72292,0.563225 0.169479,0 0.400992,-0.18343 0.700419,-0.544776 0.298817,-0.360498 0.450659,-0.661196 0.450659,-0.899761 0,-0.225417 -0.143124,-0.525903 -0.433428,-0.896156 -0.285032,-0.370464 -0.544116,-0.557923 -0.767115,-0.557923 -0.227053,0 -0.472959,0.159255 -0.731435,0.473736 -0.263341,0.31427 -0.392477,0.614332 -0.392477,0.900397 z m 0.129136,-13.2633604 0,5.0745404 c 0,0.952139 -0.08028,1.566471 -0.240635,1.838753 -0.160965,0.276523 -0.464445,0.41224 -0.91024,0.41224 -0.254623,0 -0.441942,0.02842 -0.562159,0.08482 -0.120622,0.05174 -0.183264,0.135929 -0.183264,0.243442 0,0.18343 0.214281,0.337808 0.642439,0.455076 l 0.0225,0 c 0.200496,0.03775 0.4016,0.08885 0.598244,0.150349 0.195834,0.06553 0.396938,0.149501 0.606151,0.248107 0.254624,0.10815 0.571281,0.272282 0.955042,0.488157 0.383962,0.215239 0.637978,0.323388 0.757992,0.323388 0.111499,0 0.192589,-0.0282 0.236784,-0.08482 0.0448,-0.05111 0.06264,-0.177916 0.06264,-0.370253 0,-0.03732 -0.0041,-0.177916 -0.01014,-0.42666 -0.0444,-1.374134 -0.0667,-2.762263 -0.0667,-4.174143 l 0,-4.2865348 c 0,-0.7362643 0.06203,-1.2473234 0.187319,-1.5340254 0.129339,-0.290307 0.366122,-0.5295081 0.713797,-0.7218444 0.102782,-0.055983 0.218944,-0.093942 0.348081,-0.1221452 0.124879,-0.027567 0.271855,-0.041988 0.437482,-0.041988 0.267193,-0.019085 0.441335,-0.061285 0.521614,-0.1221452 0.07602,-0.065526 0.115554,-0.1641327 0.115554,-0.3047269 0,-0.088852 -0.04419,-0.1687979 -0.129339,-0.2343238 -0.089,-0.061497 -0.195833,-0.093941 -0.329835,-0.093941 -0.05798,0 -0.374638,0.023538 -0.936594,0.070403 -0.566619,0.041988 -1.102221,0.065526 -1.59748,0.065526 -0.722515,0 -1.418271,-0.041988 -2.092334,-0.1219332 -0.102377,-0.00848 -0.169682,-0.014844 -0.196036,-0.014844 -0.08515,0 -0.160965,0.028416 -0.218944,0.089064 -0.06264,0.061285 -0.09366,0.1310516 -0.09366,0.2109974 0,0.093729 0.02696,0.1736752 0.08048,0.2440784 0.04886,0.065526 0.146976,0.1357169 0.28564,0.2109974 0.02635,0.019085 0.07116,0.046865 0.129137,0.084187 0.191981,0.1454716 0.334498,0.2674048 0.419034,0.3708889 0.165425,0.22054 0.281587,0.4597411 0.348283,0.7267218 0.06649,0.2674047 0.09812,0.6845222 0.09812,1.2617433 z m 6.665426,0.00424 0,5.9329504 c 0,0.506182 -0.09366,0.867528 -0.285439,1.088068 -0.191981,0.219904 -0.508639,0.328265 -0.945919,0.328265 -0.258678,0 -0.441334,0.0282 -0.539656,0.08461 -0.102782,0.05111 -0.151639,0.135929 -0.151639,0.243443 0,0.12681 0.03548,0.220752 0.111499,0.2814 0.07582,0.06129 0.227459,0.09861 0.463634,0.117268 0.02696,0 0.05352,0.0042 0.08048,0.01484 0.174141,0.03775 0.298818,0.07083 0.3793,0.09437 0.530939,0.196577 1.057418,0.42666 1.588357,0.698518 0.526277,0.267405 0.820635,0.403334 0.883277,0.403334 0.111499,0 0.191779,-0.0422 0.231513,-0.122146 0.0448,-0.08397 0.06731,-0.257862 0.06731,-0.520389 l 0,-1.665077 c 0.705081,0.680281 1.383199,1.182221 2.034152,1.510487 0.647101,0.33293 1.281025,0.497063 1.900961,0.497063 0.624193,0 1.217774,-0.145472 1.77527,-0.440444 0.557902,-0.290943 1.017076,-0.699154 1.373874,-1.224633 0.312603,-0.445321 0.535602,-0.984584 0.664941,-1.613335 0.129339,-0.628751 0.196441,-1.627119 0.196441,-3.001889 l 0,-2.7338478 c 0,-0.7693454 0.05352,-1.289947 0.165019,-1.5526865 0.106837,-0.2669806 0.307941,-0.4921859 0.593582,-0.6749797 0.106836,-0.065526 0.222998,-0.1123905 0.352337,-0.1454715 0.133799,-0.032445 0.280978,-0.046865 0.445795,-0.046865 0.210429,0 0.357,-0.033081 0.437482,-0.093942 0.08494,-0.065314 0.125285,-0.1783405 0.125285,-0.3329305 0,-0.098607 -0.03568,-0.1779164 -0.111499,-0.2392011 -0.07197,-0.060649 -0.170088,-0.089064 -0.294967,-0.089064 -0.05332,0 -0.34362,0.023538 -0.874559,0.070403 -0.530331,0.041987 -1.034916,0.065526 -1.503213,0.065526 -0.687443,0 -1.343059,-0.041987 -1.958535,-0.1219331 -0.089,-0.00848 -0.143124,-0.014844 -0.160356,-0.014844 -0.07582,0 -0.147585,0.028416 -0.205564,0.089064 -0.06224,0.061285 -0.09386,0.1310517 -0.09386,0.2109975 0,0.1503489 0.116162,0.3047269 0.352946,0.4784021 0.236175,0.16901 0.39714,0.3096043 0.481474,0.4317495 0.138056,0.1825817 0.236783,0.407999 0.294966,0.6796449 0.05737,0.2676168 0.08433,0.7082727 0.08433,1.3134854 l 0,3.1564788 c 0,1.707064 -0.227459,2.898616 -0.687241,3.573596 -0.454512,0.679857 -1.222235,1.017665 -2.29283,1.017665 -0.976936,0 -1.735537,-0.252985 -2.279653,-0.754926 -0.544319,-0.506817 -0.81658,-1.210213 -0.81658,-2.115275 l 0,-4.9057425 c 0,-0.7549254 0.06264,-1.2712859 0.182656,-1.5526864 0.120622,-0.2860659 0.352946,-0.5206017 0.691904,-0.7031834 0.09832,-0.055983 0.209821,-0.093941 0.343012,-0.1221452 0.129947,-0.027567 0.277126,-0.041987 0.441942,-0.041987 0.272464,-0.019085 0.446606,-0.061285 0.52648,-0.1221453 0.07582,-0.065526 0.115959,-0.1641326 0.115959,-0.3047269 0,-0.098607 -0.04014,-0.1779164 -0.115959,-0.2392011 -0.07987,-0.060648 -0.182859,-0.089064 -0.316658,-0.089064 -0.05798,0 -0.370178,0.023538 -0.932742,0.070403 -0.561956,0.041987 -1.092896,0.065526 -1.592412,0.065526 -0.705081,0 -1.387051,-0.041987 -2.051992,-0.1219332 -0.102985,-0.00848 -0.169479,-0.014844 -0.196644,-0.014844 -0.08433,0 -0.165424,0.028416 -0.236176,0.089064 -0.0671,0.061285 -0.102782,0.1310517 -0.102782,0.2109974 0,0.09373 0.02696,0.1736753 0.08048,0.2440784 0.04886,0.065526 0.146977,0.135717 0.285641,0.2109974 0.02636,0.019085 0.07116,0.046865 0.129137,0.084187 0.191981,0.1454715 0.330037,0.2674047 0.405857,0.3708889 0.174141,0.22054 0.294155,0.4597411 0.36146,0.7267217 0.0667,0.2674048 0.09812,0.6845223 0.09812,1.2664086 z M 98.28163,4.669196 C 97.86219,4.5050633 97.55871,4.2518664 97.366931,3.9140585 97.17495,3.5762506 97.08129,3.1260521 97.08129,2.5683403 c 0,-0.7460189 0.272261,-1.2997016 0.811918,-1.66995431 0.540264,-0.37025274 1.352181,-0.5579238 2.440612,-0.5579238 1.37854,0 2.45785,0.23941314 3.23875,0.71230181 0.78496,0.4786142 1.17804,1.1306916 1.17804,1.9560202 0,0.4455332 -0.1115,0.7695574 -0.33895,0.9618937 -0.22766,0.1923363 -0.65177,0.3047269 -1.26724,0.3420491 -0.2901,0.010603 -0.72698,0.023326 -1.32056,0.041987 -1.57964,0.037958 -2.757072,0.1412304 -3.54223,0.3144816 z m -0.02696,8.859559 c 0,-1.280829 0.227661,-2.260748 0.687241,-2.940605 0.454714,-0.6802806 1.115399,-1.0183006 1.980829,-1.0183006 0.83402,0 1.4724,0.2771594 1.91374,0.8259646 0.44194,0.548805 0.66027,1.341053 0.66027,2.377379 0,1.229298 -0.24083,2.200099 -0.71825,2.922155 -0.48168,0.717603 -1.12412,1.07895 -1.93604,1.07895 -0.8034,0 -1.43205,-0.290944 -1.896495,-0.868165 C 98.486791,15.329761 98.25467,14.536877 98.25467,13.528755 z M 97.670211,5.0116692 C 97.36227,5.1662592 97.126095,5.4054603 96.956616,5.7199419 96.787137,6.0342114 96.7026,6.3906804 96.7026,6.7844715 c 0,0.4315374 0.120014,0.8768586 0.365515,1.3368118 0.240636,0.4639822 0.588919,0.9141807 1.04343,1.3548366 -0.539048,0.3757662 -0.949771,0.8584091 -1.235411,1.4540801 -0.280978,0.59567 -0.423495,1.285281 -0.423495,2.063745 0,1.247748 0.414777,2.293828 1.240075,3.13294 0.829757,0.84399 1.842373,1.266409 3.042306,1.266409 0.83036,0 1.62444,-0.187459 2.39156,-0.563225 0.76731,-0.374494 1.20459,-0.562589 1.30677,-0.562589 0.23678,0 0.4689,0.07507 0.70062,0.225417 0.22746,0.150349 0.41478,0.346926 0.55344,0.586128 0.0533,0.09861 0.0937,0.192336 0.12508,0.281188 0.0312,0.08419 0.0489,0.16901 0.0576,0.253833 l 0.0122,0.02757 c 0.0541,0.229658 0.14779,0.342685 0.2903,0.342685 0.10279,0 0.18732,-0.05174 0.2453,-0.149713 0.0626,-0.103484 0.0937,-0.239201 0.0937,-0.413512 0,-0.689612 -0.12001,-1.252201 -0.36551,-1.692857 -0.2453,-0.440444 -0.6246,-0.788006 -1.14703,-1.045869 0.0943,-0.215662 0.16502,-0.440655 0.21449,-0.670738 0.0488,-0.229659 0.0711,-0.473101 0.0711,-0.726722 0,-1.332146 -0.42349,-2.396676 -1.26642,-3.198678 -0.84375,-0.8017903 -1.97232,-1.2002467 -3.38654,-1.2002467 -0.33896,0 -0.695957,0.032445 -1.070594,0.1026359 -0.374638,0.065526 -0.580405,0.1034842 -0.611422,0.1034842 -0.289695,0 -0.557496,-0.1598915 -0.807457,-0.4737369 -0.245298,-0.3191468 -0.370583,-0.6660732 -0.370583,-1.0507459 0,-0.5206017 0.268409,-0.8817359 0.799348,-1.0783134 0.530331,-0.1972137 1.940698,-0.2958205 4.233528,-0.2958205 1.15553,0 1.98083,-0.1970016 2.47609,-0.5907927 0.4908,-0.3944274 0.7361,-1.0458686 0.7361,-1.9651387 0,-1.2519887 -0.50438,-2.2325435 -1.50849,-2.9357268 -1.00775,-0.70869683 -2.40879,-1.06028849 -4.2023,-1.06028849 -1.391916,0 -2.502651,0.25786216 -3.332408,0.77358649 -0.825297,0.52060165 -1.240277,1.2100012 -1.240277,2.0684108 0,0.543928 0.155896,1.018301 0.463837,1.4209986 0.30794,0.4082111 0.79874,0.7791 1.472195,1.1071533"
       id="path20"
       style="fill:#333335;fill-opacity:1;fill-rule:evenodd;stroke:none" /><path
       d="m 116.61778,8.8622129 0,12.1850471 c 0,0.84399 -0.058,1.416334 -0.1786,1.716183 -0.11616,0.304727 -0.31666,0.577221 -0.60696,0.825965 -0.12914,0.107513 -0.27165,0.196577 -0.42349,0.262103 -0.15164,0.06129 -0.32578,0.103484 -0.51777,0.12257 -0.0122,0.0085 -0.0357,0.01908 -0.062,0.02778 -0.27246,0.07507 -0.40626,0.197002 -0.40626,0.370889 0,0.163921 0.031,0.276523 0.0983,0.328053 0.0671,0.05662 0.2005,0.08907 0.41032,0.09861 0.089,0 0.41477,-0.0282 0.98139,-0.08949 0.56662,-0.06065 1.08438,-0.08906 1.55734,-0.08906 0.8253,0 1.65506,0.05174 2.48015,0.150349 0.16036,0.01909 0.24996,0.0282 0.27713,0.0282 0.12001,0 0.21367,-0.03308 0.28098,-0.09861 0.0667,-0.06128 0.0983,-0.155014 0.0983,-0.272282 0,-0.201242 -0.18793,-0.370252 -0.56277,-0.497063 l -0.0264,-0.01272 c -0.0448,-0.01909 -0.0983,-0.0422 -0.16948,-0.0704 -0.26314,-0.107513 -0.45066,-0.215662 -0.56257,-0.328265 -0.22705,-0.211421 -0.38801,-0.474161 -0.47701,-0.797549 -0.0937,-0.318511 -0.13846,-0.877071 -0.13846,-1.674195 l 0,-13.0759023 c 0,-0.6893995 0.14312,-1.1533818 0.43261,-1.4023375 0.28565,-0.2487437 0.83909,-0.3702528 1.65972,-0.3702528 1.10668,0 2.1641,0.1215091 3.16739,0.3653755 1.00856,0.2394131 1.81602,0.5585599 2.42744,0.9523511 0.3568,0.2487437 0.6913,0.577009 1.00795,0.9892491 0.31261,0.4130884 0.52182,0.6192085 0.6246,0.6192085 0.0714,0 0.12934,-0.041987 0.16948,-0.1310516 0.0448,-0.084187 0.0673,-0.2014548 0.0673,-0.3515917 0,-0.253621 -0.0851,-0.61009 -0.25463,-1.0645296 -0.16948,-0.4504106 -0.38781,-0.8584096 -0.6471,-1.2148786 -0.36531,-0.4875206 -0.78029,-0.8350832 -1.23541,-1.0507459 -0.45978,-0.2158747 -1.03958,-0.323388 -1.74466,-0.323388 -0.21833,0 -0.87861,0.028204 -1.98083,0.084187 -1.10162,0.05153 -2.09234,0.079946 -2.96244,0.079946 -1.45435,0 -2.8191,-0.051742 -4.09101,-0.1503489 -0.16481,-0.010603 -0.26759,-0.012723 -0.29881,-0.012723 -0.0712,0 -0.1338,0.032445 -0.19178,0.102848 -0.0582,0.070827 -0.0851,0.1458957 -0.0851,0.2254173 0,0.1219332 0.0316,0.2156627 0.0989,0.2949723 0.0667,0.079946 0.20455,0.1738873 0.4235,0.2820367 0.0182,0.00848 0.0401,0.019085 0.0667,0.027567 0.29477,0.1552263 0.50844,0.3096043 0.63839,0.4694958 0.23617,0.2529848 0.40565,0.5530464 0.50397,0.8908544 0.10279,0.3378079 0.15164,0.8673159 0.15164,1.5802539 z m 13.93721,12.6119191 c 0,0.266981 0.15164,0.586128 0.45045,0.961258 0.29882,0.375554 0.54027,0.563225 0.72292,0.563225 0.16969,0 0.4012,-0.18343 0.70063,-0.544776 0.29881,-0.360498 0.45045,-0.661196 0.45045,-0.899761 0,-0.225417 -0.14312,-0.525903 -0.43261,-0.896156 -0.28565,-0.370464 -0.54432,-0.557923 -0.76732,-0.557923 -0.22746,0 -0.47296,0.159255 -0.73144,0.473736 -0.26374,0.31427 -0.39308,0.614332 -0.39308,0.900397 z m 0.12934,-13.2633604 0,5.0745404 c 0,0.952139 -0.0805,1.566471 -0.24084,1.838753 -0.16036,0.276523 -0.46384,0.41224 -0.90963,0.41224 -0.25463,0 -0.44195,0.02842 -0.56257,0.08482 -0.12082,0.05174 -0.18286,0.135929 -0.18286,0.243442 0,0.18343 0.21388,0.337808 0.64244,0.455076 l 0.0219,0 c 0.2011,0.03775 0.4018,0.08885 0.59824,0.150349 0.19604,0.06553 0.39714,0.149501 0.60676,0.248107 0.25401,0.10815 0.57128,0.272282 0.95464,0.488157 0.38376,0.215239 0.63777,0.323388 0.75839,0.323388 0.1115,0 0.19198,-0.0282 0.23618,-0.08482 0.045,-0.05111 0.0626,-0.177916 0.0626,-0.370253 0,-0.03732 -0.004,-0.177916 -0.0101,-0.42666 -0.0442,-1.374134 -0.0667,-2.762263 -0.0667,-4.174143 l 0,-4.2865348 c 0,-0.7362643 0.0626,-1.2473234 0.18732,-1.5340254 0.12934,-0.290307 0.36612,-0.5295081 0.7144,-0.7218444 0.10218,-0.055983 0.21834,-0.093942 0.34768,-0.1221452 0.12467,-0.027567 0.27185,-0.041988 0.43728,-0.041988 0.26719,-0.019085 0.44133,-0.061285 0.52181,-0.1221452 0.0758,-0.065526 0.11596,-0.1641327 0.11596,-0.3047269 0,-0.088852 -0.0448,-0.1687979 -0.12913,-0.2343238 -0.0898,-0.061497 -0.19665,-0.093941 -0.33045,-0.093941 -0.0582,0 -0.37463,0.023538 -0.93679,0.070403 -0.56662,0.041988 -1.10222,0.065526 -1.59687,0.065526 -0.72293,0 -1.41888,-0.041988 -2.09295,-0.1219332 -0.10237,-0.00848 -0.16887,-0.014844 -0.19603,-0.014844 -0.0849,0 -0.16076,0.028416 -0.21895,0.089064 -0.062,0.061285 -0.0937,0.1310516 -0.0937,0.2109974 0,0.093729 0.0272,0.1736752 0.0805,0.2440784 0.0489,0.065526 0.14717,0.1357169 0.28564,0.2109974 0.027,0.019085 0.0712,0.046865 0.12934,0.084187 0.19198,0.1454716 0.33449,0.2674048 0.41944,0.3708889 0.16501,0.22054 0.28097,0.4597411 0.34767,0.7267218 0.0673,0.2674047 0.0983,0.6845222 0.0983,1.2617433 z m 10.08743,-2.9077352 -3.63183,9.1405346 c -0.19137,0.464619 -0.37464,0.816211 -0.54412,1.054988 -0.16948,0.239837 -0.36551,0.422631 -0.59317,0.549441 -0.0626,0.03711 -0.17009,0.08398 -0.32578,0.139958 -0.25463,0.07995 -0.3793,0.206756 -0.3793,0.370889 0,0.09861 0.0403,0.178553 0.11616,0.239201 0.0799,0.06086 0.18732,0.08906 0.32983,0.08906 0.0851,0 0.25463,-0.01908 0.49993,-0.05174 0.24996,-0.03732 0.45512,-0.05598 0.62013,-0.05598 0.535,0 1.1377,0.01909 1.81136,0.05598 0.67346,0.03308 1.08377,0.05174 1.22224,0.05174 0.19198,0 0.31726,-0.01908 0.37058,-0.06086 0.0576,-0.04262 0.0845,-0.121933 0.0845,-0.239201 0,-0.201879 -0.23617,-0.342473 -0.71825,-0.412877 -0.045,-0.0085 -0.0667,-0.01272 -0.076,-0.01272 -0.20961,-0.04687 -0.36997,-0.135929 -0.48613,-0.26274 -0.1115,-0.12681 -0.16948,-0.2814 -0.16948,-0.468859 0,-0.06128 0.008,-0.126811 0.0219,-0.192336 0.0142,-0.06128 0.0316,-0.140595 0.0586,-0.230295 l 2.75728,-7.1471928 c 0.0349,-0.075069 0.062,-0.1172679 0.0799,-0.1363531 0.0142,-0.019085 0.0401,-0.032445 0.0758,-0.0422 0.027,0 0.058,0.014844 0.0981,0.046865 0.0403,0.033081 0.0714,0.07528 0.0983,0.1316879 l 2.02503,4.619677 c 0.22766,0.510847 0.39714,0.985008 0.5133,1.420999 0.11211,0.436415 0.16948,0.839748 0.16948,1.214666 0,0.318723 -0.0626,0.553047 -0.17819,0.698518 -0.11596,0.150349 -0.34829,0.26274 -0.68725,0.347563 -0.0488,0.0085 -0.12467,0.02333 -0.22299,0.04199 -0.34829,0.0422 -0.52243,0.164133 -0.52243,0.356469 0,0.117268 0.0316,0.202091 0.0943,0.252985 0.0576,0.05174 0.16036,0.07528 0.29882,0.07528 0.10704,0 0.36146,-0.01909 0.77177,-0.05174 0.41032,-0.03732 0.77178,-0.05598 1.08439,-0.05598 0.28057,0 0.60169,0.01909 0.96781,0.05598 0.36612,0.03308 0.59763,0.05174 0.69129,0.05174 0.14313,0 0.24591,-0.03244 0.32173,-0.09797 0.0758,-0.06129 0.1115,-0.164769 0.1115,-0.300698 -0.0101,-0.155014 -0.1115,-0.257862 -0.3126,-0.300486 -0.11596,-0.02757 -0.20516,-0.05598 -0.27632,-0.08419 -0.14779,-0.05577 -0.27713,-0.149712 -0.39248,-0.290943 -0.1121,-0.135717 -0.25928,-0.398456 -0.44194,-0.783129 l -4.36732,-9.7410824 c -0.0898,-0.2018789 -0.16563,-0.3329306 -0.23679,-0.4033337 -0.0673,-0.070191 -0.15184,-0.1032721 -0.2455,-0.1032721 -0.19644,0 -0.34362,0.1363531 -0.44579,0.4128763 -0.0101,0.037322 -0.0225,0.075068 -0.0403,0.1081494 z m 10.01568,7.6402266 3.67157,0 c 0.88773,0 1.44584,0.04199 1.66417,0.121297 0.22361,0.08482 0.3345,0.239201 0.3345,0.46886 0,0.7791 -0.2903,1.468499 -0.87415,2.064169 -0.58446,0.595246 -1.2717,0.890855 -2.06578,0.890855 -0.74948,0 -1.36495,-0.31427 -1.85109,-0.942385 -0.48208,-0.628327 -0.77624,-1.496279 -0.87922,-2.602796 z m -0.0533,-0.727358 c 0,-1.824332 0.39248,-3.2784117 1.17743,-4.3664797 0.7809,-1.0831907 1.83832,-1.6271187 3.15888,-1.6271187 0.99477,0 2.0078,0.3702527 3.03359,1.1113944 0.27692,0.1923363 0.45512,0.2909431 0.52182,0.2909431 0.0805,0 0.12974,-0.010603 0.15163,-0.033081 0.0225,-0.023538 0.0316,-0.075068 0.0316,-0.1592553 0,-0.1083615 -0.0448,-0.2394132 -0.13846,-0.3848847 -0.0892,-0.1454716 -0.24084,-0.3191469 -0.45066,-0.5203896 -0.63311,-0.6143312 -1.30272,-1.069407 -1.99847,-1.3603502 -0.69596,-0.2951843 -1.45456,-0.4406559 -2.2758,-0.4406559 -1.4274,0 -2.63646,0.577009 -3.62657,1.7257256 -0.98606,1.1493527 -1.48152,2.5559314 -1.48152,4.221008 0,1.777468 0.49992,3.311494 1.50382,4.596139 0.99944,1.289947 2.18599,1.932482 3.55541,1.932482 0.78962,0 1.50402,-0.164133 2.12801,-0.492186 0.62926,-0.333143 1.18271,-0.825965 1.66012,-1.486525 0.31666,-0.413088 0.55284,-0.830842 0.71786,-1.262379 0.16542,-0.431113 0.24996,-0.834447 0.24996,-1.210001 0,-0.210998 -0.0442,-0.351168 -0.12934,-0.426236 -0.089,-0.0704 -0.34362,-0.10815 -0.77178,-0.10815 l -7.01756,0 z m 10.11846,-5.8812079 -0.027,2.3351794 c 0,0.202091 0.027,0.3522279 0.0849,0.4459574 0.0576,0.098607 0.14251,0.1454715 0.25401,0.1454715 0.16502,0 0.28564,-0.2114215 0.357,-0.6334163 0.058,-0.3282653 0.12062,-0.5956701 0.18327,-0.7971249 0.24063,-0.7411417 0.58446,-1.2990655 1.03025,-1.6788608 0.446,-0.3800074 0.98565,-0.5723437 1.61937,-0.5723437 0.67366,0 1.22244,0.2158747 1.65506,0.6516533 0.43282,0.4364147 0.6471,0.9947626 0.6471,1.6843743 0,0.834235 -0.80746,1.6409025 -2.41811,2.4291207 -0.30349,0.149501 -0.53966,0.267405 -0.70468,0.356257 -0.88368,0.43175 -1.50788,0.891491 -1.88312,1.383889 -0.37464,0.48752 -0.56196,1.088068 -0.56196,1.791251 0,0.999004 0.31666,1.791251 0.95444,2.382892 0.63392,0.590793 1.49936,0.885978 2.58779,0.885978 0.85226,0 1.51254,-0.08906 1.98084,-0.271646 0.46424,-0.18343 0.70042,-0.441292 0.70974,-0.769558 l 0.0264,-1.580254 c 0,-0.178552 -0.0182,-0.300486 -0.0535,-0.37513 -0.0355,-0.0704 -0.0937,-0.108149 -0.18266,-0.108149 -0.13846,0 -0.2453,0.145471 -0.32578,0.431537 -0.0805,0.290943 -0.1563,0.492398 -0.23618,0.614331 -0.28564,0.431538 -0.63858,0.769558 -1.05741,1.008123 -0.41944,0.244078 -0.8476,0.366011 -1.29421,0.366011 -0.55729,0 -1.00329,-0.149713 -1.33839,-0.455076 -0.3343,-0.299849 -0.50398,-0.698306 -0.50398,-1.195581 0,-0.886613 1.0264,-1.791887 3.07393,-2.720488 0.14718,-0.06086 0.25868,-0.112391 0.33896,-0.149713 0.74948,-0.346926 1.29826,-0.778464 1.651,-1.289947 0.35234,-0.515724 0.53114,-1.1444753 0.53114,-1.8996127 0,-1.1533819 -0.36207,-2.105733 -1.08438,-2.8606584 -0.72292,-0.7549254 -1.63721,-1.1349328 -2.74815,-1.1349328 -0.65156,0 -1.3832,0.2109974 -2.19512,0.6329922 -0.21833,0.1077254 -0.36146,0.1736753 -0.43282,0.1923364 -0.0401,0.00848 -0.10278,0.023538 -0.18265,0.042199 -0.30348,0.060649 -0.45512,0.2998495 -0.45512,0.7129379"
       id="path22"
       style="fill:#333335;fill-opacity:1;fill-rule:evenodd;stroke:none" /><path
       d="m 44.428303,42.655304 82.248947,0 0,112.863676 -82.248947,0 0,-112.863676 z"
       id="path24"
       style="fill:#ffffff;fill-opacity:1;fill-rule:evenodd;stroke:none" /><path
       d="m 80.555277,95.828772 c 0,1.624362 0.392477,4.928648 0.821242,5.283838 0.392478,0.3359 -0.785562,-5.153423 -0.821242,-5.283838 z m 9.031236,1.008122 c -0.392477,-0.05598 -0.445794,0.447866 -0.124676,0.522934 0.374637,0.05598 0.445997,-0.44829 0.124676,-0.522934 z m 11.941367,2.669594 c 0.0714,1.157622 -0.3568,0.560252 -1.570517,0.09373 0.321317,0.540962 1.856157,1.680132 2.319997,1.063892 0.14312,-0.31724 -0.14252,-1.101214 -0.74948,-1.157622 z m 7.79988,0.317239 c -1.28488,0.355413 0.32132,3.995593 1.44584,3.416673 0.49992,-0.42899 -0.41032,-0.74644 0.2678,-1.04523 0.57128,-0.18704 0.76772,0 1.01769,0.20548 -0.16097,-1.06453 -1.41017,-2.950145 -2.73133,-2.576923 z m -8.5676,4.238393 c 0.82124,6.25465 2.33824,5.22786 0,0 z m -34.341366,-8.812054 0.338957,2.781773 2.784238,0.597579 -0.374638,-2.781985 -2.748557,-0.597367 z m 60.204936,7.878584 c -0.2678,1.06453 -1.58836,1.40064 -3.15949,0 -0.8924,-0.80243 -1.19588,-1.97871 -2.03476,-0.78377 -0.33916,0.80243 1.14236,4.51789 2.41001,5.52601 0,0 -0.7142,1.21361 -0.99985,1.69922 l -2.98067,-0.76574 c 0,0.18704 -0.0182,0.4485 -0.0357,0.59758 l -2.58821,-0.59758 c -0.49992,-3.28562 -1.30271,-8.60657 -2.64172,-9.055076 -1.10688,-0.298789 0.76773,5.097446 1.07121,7.748166 l -3.17733,-0.65335 c 0.23212,-0.728 0.23212,-0.85905 0.0712,-1.3067 -1.26704,0.95214 -3.46215,0.74644 -5.40792,-3.41667 -0.67811,-1.43797 -0.6248,-2.875295 -0.75008,-4.462759 -2.1416,-2.277499 -3.24848,-1.063893 -4.35476,0.168374 2.01652,1.176284 3.67664,3.173865 3.659,5.358275 -0.0182,1.62479 -2.6774,1.62479 -3.90896,0.59758 0.94592,1.79231 1.76716,3.60349 1.785,5.41468 0,1.08255 0.12468,4.05157 -1.339,4.25642 -1.874,0.24281 -3.819763,-13.31213 -3.819763,-13.31213 l -1.766959,-0.858413 c -0.0892,1.381343 0.588918,3.099433 1.660122,3.678143 l -2.713081,0.11196 c -1.12452,-0.9708 -0.499922,-4.331698 -4.605121,-5.489321 -0.267801,0.728418 -0.731638,1.493734 -1.588358,1.475073 -2.463525,-0.429204 -2.070642,-3.547089 -0.232324,-3.845878 0.232324,-1.213606 -1.017076,-2.950359 -1.802639,-2.651569 -1.303325,1.026783 -0.892399,4.350363 0.249961,5.563969 0.589122,0.429205 0.606962,1.082555 -0.160761,0.970801 -1.891838,-0.317451 -3.462964,-3.901862 -3.391199,-6.310625 -2.231404,-2.894164 -2.962839,-0.970589 -3.194961,0.485188 0.999236,1.755201 3.766242,10.343962 2.12396,12.901592 -0.178805,0.29879 -0.713798,0.35456 -0.92808,0.056 -3.052038,-3.80877 -3.356127,-9.689975 -3.319839,-14.171179 -0.339566,-0.914817 -1.535446,-2.59495 -2.534885,-2.59495 -0.945919,0 0.339161,3.416674 1.089044,4.014252 l -0.91024,2.165746 -2.570564,-0.578918 0.05352,0.504273 -3.034199,-0.522934 c 0.232121,-2.203067 -0.821243,-8.793608 -2.249244,-8.793608 -0.767115,0 0.125284,3.005493 0.660278,7.822808 l -3.676637,-1.139174 0.553442,-0.672011 -0.660278,-5.881208 c -0.321727,-0.746443 -0.928688,-1.120513 -1.821087,-1.232267 -3.123196,-0.484976 -3.658798,6.870669 -5.247155,7.524019 2.462917,2.501857 5.068959,6.777576 7.371722,9.596881 5.30108,5.19054 7.888876,4.92907 7.996321,2.85706 0.089,-2.054 2.606042,-0.16838 2.855394,0.69067 1.017685,3.99559 -3.069878,5.50777 -5.64024,4.53655 -9.584678,-3.6404 -10.281244,-16.859437 -16.9564,-17.531448 l 1.677556,11.463838 -1.838318,0 c -1.017279,-1.6057 -3.141238,-3.32358 -5.247763,-2.05399 l -1.17804,-5.619741 c 1.910083,0 4.105199,1.269377 5.372845,2.670018 -1.213518,-5.264968 -1.213518,-16.505299 -7.032562,-16.934291 l -1.356845,-5.395596 0,78.56547 82.195427,0 0,-52.3897 z"
       id="path26"
       style="fill:#333335;fill-opacity:1;fill-rule:evenodd;stroke:none" /><path
       d="m 44.428303,42.65488 0,32.654552 c 6.925928,1.866956 7.568367,5.34025 9.460002,15.216413 1.21372,0 2.231404,0.373857 2.998722,0.990097 1.606603,-2.053991 1.285485,-5.619741 2.588201,-8.065827 1.499159,-3.752573 4.533357,-2.614035 6.49696,0.05598 0.892603,-1.605489 2.963042,-0.41118 3.766445,0.522298 1.749119,1.979558 3.301797,6.012472 3.694477,8.812906 0.446403,0.167737 0.910645,0.187035 1.410162,0.336111 -1.606198,-2.576501 -3.141036,-9.44717 0.660278,-7.878792 1.553286,0.765105 2.481365,2.389467 3.623725,3.845879 1.195881,-4.406135 4.53356,-0.597579 5.443799,1.344022 0.356798,-1.194946 1.338802,-1.735905 2.356081,-1.680134 2.499205,0.410756 4.051883,3.192529 4.194399,7.113688 0.83888,0.35456 1.910083,0.690672 2.838163,1.269377 0,-1.101639 0.30348,-2.781773 -0.499922,-3.416673 -1.21372,-0.803063 0.01824,1.120513 -1.195881,1.400005 -0.839082,0.09373 -1.534837,-2.501857 -1.034915,-3.2483 0.428157,-0.765316 1.641674,-1.157835 2.588201,-0.989461 2.891075,0.560256 3.534121,4.275719 3.069879,6.720956 l 1.17804,0.448502 C 97.797318,95.959187 97.529517,93.999138 97.475998,92.03824 l 2.820522,1.194945 c -0.12528,0.429841 -0.499919,1.400641 -0.321926,1.92294 1.606806,-1.941601 5.497726,-1.531057 6.925726,0.93369 0.9816,-1.381344 3.24868,-1.437327 5.24776,0.914817 0.66028,-0.839749 1.46368,-0.896368 2.10612,-0.522299 1.89184,1.082555 3.53412,5.078147 4.1944,9.428297 l 1.73148,0.46716 c -1.071,-2.52115 -2.3204,-5.76945 -1.28487,-7.207413 1.62403,-1.773227 4.64039,0 5.22931,1.867163 0.16097,0.5416 0.57128,1.12031 0.92869,1.04587 1.19588,-0.22435 0.0714,-1.86716 -1.82109,-3.304916 -1.58836,-1.194945 -4.4622,-2.427212 -6.67515,-3.342241 L 56.494549,74.114911 52.871229,64.144383 116.43168,92.69159 c 5.6224,2.670231 8.67505,4.724221 10.24557,7.76704 l 0,-57.80375 -82.248947,0 z"
       id="path28"
       style="fill:#333335;fill-opacity:1;fill-rule:evenodd;stroke:none" /></g></svg>